<?xml version="1.0" standalone="no"?>
<!DOCTYPE svg PUBLIC "-//W3C//DTD SVG 20010904//EN"
 "http://www.w3.org/TR/2001/REC-SVG-20010904/DTD/svg10.dtd">
<svg version="1.0" xmlns="http://www.w3.org/2000/svg"
 width="242.000000pt" height="242.000000pt" viewBox="0 0 242.000000 242.000000"
 preserveAspectRatio="xMidYMid meet">
<metadata>
Created by potrace 1.14, written by Peter Selinger 2001-2017
</metadata>
<g transform="translate(0.000000,242.000000) scale(0.100000,-0.100000)"
fill="#000000" stroke="none">
<path d="M637 2204 c-28 -22 -44 -41 -40 -50 4 -10 16 -4 49 24 24 20 43 43
44 50 0 17 -1 16 -53 -24z"/>
<path d="M1660 2211 c0 -5 5 -13 10 -16 6 -3 10 -2 10 4 0 5 -4 13 -10 16 -5
3 -10 2 -10 -4z"/>
<path d="M976 2097 c-22 -16 -18 -65 6 -81 14 -8 23 -5 48 19 16 16 30 32 30
37 0 6 -52 38 -63 38 -2 0 -11 -6 -21 -13z"/>
<path d="M484 2065 c-17 -13 -17 -14 -2 -15 9 0 20 5 23 11 11 17 0 20 -21 4z"/>
<path d="M480 2002 c0 -7 -13 -12 -28 -12 -47 0 -66 -36 -42 -80 8 -16 15 -16
57 -8 27 6 54 15 61 20 15 13 16 58 0 58 -6 0 -20 7 -30 17 -11 9 -18 11 -18
5z"/>
<path d="M1337 1785 c-57 -50 -130 -56 -241 -20 -93 30 -91 30 -168 4 -70 -23
-113 -20 -167 14 l-34 21 -23 -29 c-20 -25 -30 -28 -97 -33 -56 -3 -83 -1
-107 12 -18 9 -43 13 -56 10 -22 -6 -23 -7 -9 -34 20 -39 90 -96 126 -104 16
-3 41 -17 55 -31 15 -15 47 -31 76 -37 36 -9 53 -18 61 -35 12 -26 37 -31 37
-7 0 8 -4 12 -10 9 -14 -9 -12 4 3 19 30 31 78 46 142 46 75 0 81 -9 39 -60
-23 -27 -25 -34 -15 -56 15 -33 14 -34 -9 -34 -22 0 -27 -15 -7 -27 6 -4 30
-10 52 -13 32 -4 41 -9 43 -28 3 -21 7 -23 41 -17 32 5 43 2 68 -19 21 -18 43
-26 67 -26 20 0 45 -6 57 -12 17 -11 22 -10 38 11 11 14 28 24 45 24 35 0 42
-9 25 -30 -10 -12 -4 -10 19 6 23 16 32 30 32 50 0 24 5 30 32 35 18 3 42 13
55 21 27 18 32 48 6 38 -10 -4 -33 -6 -53 -5 -78 4 -242 2 -251 -4 -11 -7 -41
15 -35 25 3 4 75 6 160 6 86 0 156 3 156 7 0 4 7 8 15 8 21 0 19 7 -10 42 -14
16 -25 36 -25 44 0 18 37 18 70 -1 14 -8 35 -14 47 -15 18 0 23 7 28 38 4 20
11 53 16 72 5 19 9 49 9 66 0 16 5 35 12 42 22 22 -1 25 -34 4 -18 -10 -46
-22 -62 -26 -38 -9 -132 13 -152 36 -22 24 -33 22 -67 -7z m-196 -328 c-16
-16 -26 0 -10 19 9 11 15 12 17 4 2 -6 -1 -17 -7 -23z"/>
<path d="M1884 1759 c-15 -8 -19 -18 -16 -39 2 -16 -1 -31 -10 -35 -7 -5 -10
-5 -6 0 4 4 3 16 -3 26 -9 18 -11 18 -28 2 -10 -10 -35 -49 -55 -88 -41 -78
-70 -117 -84 -113 -11 3 -12 0 -12 -43 0 -29 2 -31 30 -27 17 3 31 0 34 -8 2
-6 19 -14 38 -17 18 -3 53 -10 77 -16 41 -11 46 -10 70 13 14 13 37 26 50 28
13 1 28 10 32 18 5 8 22 39 39 68 16 29 30 54 30 56 0 2 -20 7 -44 10 -43 7
-45 6 -92 -44 -52 -56 -96 -80 -159 -86 l-40 -5 36 33 c36 33 69 99 69 139 0
11 4 18 9 15 21 -13 101 78 101 114 0 13 -38 12 -66 -1z"/>
<path d="M617 1392 c-16 -3 -15 -7 8 -34 14 -16 25 -38 25 -49 0 -18 -5 -19
-70 -13 -55 5 -74 4 -88 -8 -9 -8 -25 -18 -34 -21 -11 -4 -15 -12 -12 -22 8
-21 27 -19 49 5 19 21 45 27 45 10 0 -15 21 -12 41 6 16 15 20 14 54 -11 l36
-28 22 20 c12 11 32 26 44 32 23 12 22 12 -21 55 -50 50 -74 64 -99 58z"/>
<path d="M1566 1361 c-29 -23 -33 -31 -22 -40 10 -9 15 -8 20 4 9 23 25 18 97
-30 37 -25 72 -45 77 -45 5 0 29 11 53 24 l42 25 60 -30 c54 -28 87 -32 87
-11 0 12 -118 72 -142 72 -11 0 -36 10 -55 21 -26 16 -45 20 -78 16 -29 -3
-51 0 -62 9 -26 19 -36 17 -77 -15z"/>
<path d="M774 1328 c25 -72 29 -74 65 -31 l31 38 -32 6 c-18 3 -43 9 -54 13
-21 6 -21 5 -10 -26z"/>
<path d="M990 1325 c13 -14 30 -25 38 -25 7 0 0 11 -16 25 -17 14 -33 25 -38
25 -4 0 3 -11 16 -25z"/>
<path d="M1460 1324 c0 -14 3 -14 15 -4 8 7 15 14 15 16 0 2 -7 4 -15 4 -8 0
-15 -7 -15 -16z"/>
<path d="M1110 1275 c33 -34 47 -42 57 -33 7 6 13 12 13 13 0 6 -94 65 -104
65 -5 0 10 -20 34 -45z"/>
<path d="M1305 1277 c-10 -8 -14 -17 -9 -20 5 -3 21 3 34 14 29 22 6 28 -25 6z"/>
<path d="M1240 1269 c0 -7 -10 -9 -27 -5 l-28 7 24 -17 c19 -14 25 -14 32 -3
10 16 12 29 4 29 -3 0 -5 -5 -5 -11z"/>
<path d="M2036 1273 c-4 -5 -12 -9 -17 -9 -5 -1 -12 -2 -16 -3 -3 0 2 -10 11
-20 15 -16 15 -22 4 -40 -7 -12 -18 -21 -24 -21 -15 0 -24 -23 -15 -38 15 -24
76 49 73 88 -2 32 6 38 26 18 9 -9 12 -7 12 10 0 16 -6 22 -23 22 -13 0 -27
-3 -31 -7z"/>
<path d="M400 1250 c0 -5 4 -10 9 -10 6 0 13 5 16 10 3 6 -1 10 -9 10 -9 0
-16 -4 -16 -10z"/>
<path d="M357 1233 c-6 -10 28 -53 42 -53 13 0 14 13 4 24 -5 4 -8 13 -8 19 0
14 -31 22 -38 10z"/>
<path d="M750 1149 c-105 -42 -155 -193 -112 -336 57 -185 229 -304 382 -263
138 37 172 229 75 427 -38 77 -92 132 -160 164 -44 20 -143 25 -185 8z m133
-93 c18 -7 47 -30 65 -50 25 -29 32 -46 32 -79 0 -51 -13 -67 -53 -67 -43 0
-93 35 -123 85 -31 54 -29 94 6 112 31 16 34 16 73 -1z"/>
<path d="M1513 1141 c-129 -44 -224 -183 -239 -349 -8 -86 7 -142 52 -191 122
-136 369 -27 449 199 21 60 22 175 0 225 -43 106 -153 154 -262 116z m108
-102 c53 -53 -39 -179 -130 -179 -82 0 -61 134 29 181 45 25 75 24 101 -2z"/>
<path d="M1702 532 c-61 -66 -122 -153 -115 -164 2 -5 -1 -8 -8 -8 -7 0 -10
-3 -6 -6 3 -4 -13 -25 -36 -47 -23 -23 -35 -37 -27 -31 9 5 1 -4 -17 -19 -18
-16 -33 -33 -33 -39 0 -5 -14 -23 -30 -40 -17 -16 -28 -33 -26 -37 3 -4 -5 -8
-16 -8 -12 -1 -24 -6 -27 -11 -3 -5 -22 -17 -41 -28 -47 -24 -170 -24 -220 0
-64 31 -80 43 -72 51 4 4 -3 6 -15 3 -12 -3 -22 -3 -21 1 5 17 -15 51 -30 52
-10 0 -12 3 -5 5 7 3 -1 17 -22 36 -19 16 -32 35 -28 42 3 6 3 8 -2 4 -11 -11
-37 20 -29 34 4 7 3 10 -1 5 -10 -8 -46 43 -39 55 3 4 0 8 -5 8 -6 0 -11 7
-11 15 0 7 -8 19 -18 24 -9 6 -12 11 -7 11 6 0 -1 10 -15 23 -14 12 -19 18
-10 13 8 -5 2 4 -15 19 -47 42 -87 75 -91 75 -6 0 9 -33 40 -84 28 -45 53 -81
144 -209 12 -18 31 -39 40 -47 10 -8 19 -19 19 -23 1 -5 13 -20 27 -35 77 -80
123 -127 129 -130 84 -38 171 -44 247 -18 44 15 140 76 137 86 -1 3 12 23 28
45 49 63 88 112 120 150 17 21 41 56 55 79 14 24 32 51 40 61 18 22 38 55 46
78 3 9 9 17 13 17 4 0 8 11 9 25 1 14 1 25 -1 25 -1 -1 -26 -27 -55 -58z"/>
<path d="M1122 360 c-45 -28 -61 -68 -51 -133 5 -28 17 -63 27 -77 43 -57 156
-63 215 -11 27 25 31 36 35 93 5 75 -5 101 -51 128 -44 27 -131 27 -175 0z"/>
</g>
</svg>
